{
	"asset":{
		"generator":"Khronos glTF Blender I/O v3.5.30",
		"version":"2.0"
	},
	"extensionsUsed":[
		"KHR_materials_specular",
		"KHR_materials_ior"
	],
	"scene":0,
	"scenes":[
		{
			"name":"Scene",
			"nodes":[
				0,
				1,
				2,
				3,
				4,
				5,
				6,
				7,
				8
			]
		}
	],
	"nodes":[
		{
			"mesh":0,
			"name":"base_dedo_1",
			"rotation":[
				0,
				-0.9782025814056396,
				-0.20765328407287598,
				1.834432488758439e-16
			],
			"scale":[
				-6,
				-16,
				-6.000000476837158
			],
			"translation":[
				0,
				23.42706298828125,
				-15.561028480529785
			]
		},
		{
			"mesh":1,
			"name":"ponta_dedo_1",
			"rotation":[
				0,
				-0.8911265134811401,
				-0.4537550210952759,
				1.0334392232587582e-16
			],
			"scale":[
				-6,
				-15.999999046325684,
				-5.999999523162842
			],
			"translation":[
				0,
				44.07423782348633,
				1.894500732421875
			]
		},
		{
			"mesh":2,
			"name":"Palma",
			"rotation":[
				0,
				0,
				-1,
				0
			],
			"scale":[
				-16,
				-12,
				-8
			],
			"translation":[
				0,
				0,
				-20.53063201904297
			]
		},
		{
			"mesh":3,
			"name":"ponta_dedo_2",
			"rotation":[
				0.3047831654548645,
				-0.8373849987983704,
				-0.42639023065567017,
				0.15519337356090546
			],
			"scale":[
				-6,
				-16,
				-6
			],
			"translation":[
				-34.33803176879883,
				34.69863510131836,
				1.894500732421875
			]
		},
		{
			"mesh":4,
			"name":"base_dedo_2",
			"rotation":[
				0.3345649242401123,
				-0.9192097783088684,
				-0.19513027369976044,
				0.0710216611623764
			],
			"scale":[
				-6,
				-16,
				-6
			],
			"translation":[
				-21.066286087036133,
				18.881980895996094,
				-15.561029434204102
			]
		},
		{
			"mesh":5,
			"name":"ponta_dedo_3",
			"rotation":[
				-0.15519340336322784,
				-0.42639023065567017,
				0.8373849987983704,
				0.3047831356525421
			],
			"scale":[
				6,
				16,
				6
			],
			"translation":[
				33.933712005615234,
				34.69863510131836,
				1.894500732421875
			]
		},
		{
			"mesh":6,
			"name":"base_dedo_3",
			"rotation":[
				-0.0710216611623764,
				-0.19513027369976044,
				0.9192097783088684,
				0.3345649242401123
			],
			"scale":[
				6,
				16,
				6
			],
			"translation":[
				20.661964416503906,
				18.881980895996094,
				-15.561029434204102
			]
		},
		{
			"mesh":7,
			"name":"ponta_dedo_4",
			"rotation":[
				-0.45375505089759827,
				0,
				0,
				0.8911264538764954
			],
			"scale":[
				6,
				16,
				6
			],
			"translation":[
				0,
				-40.572940826416016,
				1.894500732421875
			]
		},
		{
			"mesh":8,
			"name":"base_dedo_4",
			"rotation":[
				-0.20765331387519836,
				0,
				0,
				0.9782025814056396
			],
			"scale":[
				6,
				16,
				6
			],
			"translation":[
				0,
				-19.925765991210938,
				-15.561028480529785
			]
		}
	],
	"materials":[
		{
			"doubleSided":true,
			"extensions":{
				"KHR_materials_specular":{
					"specularColorFactor":[
						1.2050808055629234,
						1.2050808055629234,
						1.2050808055629234
					]
				},
				"KHR_materials_ior":{
					"ior":1.4500000476837158
				}
			},
			"name":"King_kube_body.003",
			"pbrMetallicRoughness":{
				"baseColorTexture":{
					"index":0
				},
				"metallicFactor":0.8636363744735718,
				"roughnessFactor":0.0727272778749466
			}
		},
		{
			"doubleSided":true,
			"extensions":{
				"KHR_materials_specular":{
					"specularColorFactor":[
						1.2050808055629234,
						1.2050808055629234,
						1.2050808055629234
					]
				},
				"KHR_materials_ior":{
					"ior":1.4500000476837158
				}
			},
			"name":"King_kube_body.004",
			"pbrMetallicRoughness":{
				"baseColorTexture":{
					"index":1
				},
				"metallicFactor":0.8636363744735718,
				"roughnessFactor":0.0727272778749466
			}
		},
		{
			"doubleSided":true,
			"extensions":{
				"KHR_materials_specular":{
					"specularColorFactor":[
						1.2050808055629234,
						1.2050808055629234,
						1.2050808055629234
					]
				},
				"KHR_materials_ior":{
					"ior":1.4500000476837158
				}
			},
			"name":"King_kube_body",
			"pbrMetallicRoughness":{
				"baseColorTexture":{
					"index":2
				},
				"metallicFactor":0.8636363744735718,
				"roughnessFactor":0.0727272778749466
			}
		},
		{
			"doubleSided":true,
			"extensions":{
				"KHR_materials_specular":{
					"specularColorFactor":[
						1.2050808055629234,
						1.2050808055629234,
						1.2050808055629234
					]
				},
				"KHR_materials_ior":{
					"ior":1.4500000476837158
				}
			},
			"name":"King_kube_body.017",
			"pbrMetallicRoughness":{
				"baseColorTexture":{
					"index":3
				},
				"metallicFactor":0.8636363744735718,
				"roughnessFactor":0.0727272778749466
			}
		},
		{
			"doubleSided":true,
			"extensions":{
				"KHR_materials_specular":{
					"specularColorFactor":[
						1.2050808055629234,
						1.2050808055629234,
						1.2050808055629234
					]
				},
				"KHR_materials_ior":{
					"ior":1.4500000476837158
				}
			},
			"name":"King_kube_body.018",
			"pbrMetallicRoughness":{
				"baseColorTexture":{
					"index":4
				},
				"metallicFactor":0.8636363744735718,
				"roughnessFactor":0.0727272778749466
			}
		},
		{
			"doubleSided":true,
			"extensions":{
				"KHR_materials_specular":{
					"specularColorFactor":[
						1.2050808055629234,
						1.2050808055629234,
						1.2050808055629234
					]
				},
				"KHR_materials_ior":{
					"ior":1.4500000476837158
				}
			},
			"name":"King_kube_body.020",
			"pbrMetallicRoughness":{
				"baseColorTexture":{
					"index":5
				},
				"metallicFactor":0.8636363744735718,
				"roughnessFactor":0.0727272778749466
			}
		},
		{
			"doubleSided":true,
			"extensions":{
				"KHR_materials_specular":{
					"specularColorFactor":[
						1.2050808055629234,
						1.2050808055629234,
						1.2050808055629234
					]
				},
				"KHR_materials_ior":{
					"ior":1.4500000476837158
				}
			},
			"name":"King_kube_body.019",
			"pbrMetallicRoughness":{
				"baseColorTexture":{
					"index":6
				},
				"metallicFactor":0.8636363744735718,
				"roughnessFactor":0.0727272778749466
			}
		},
		{
			"doubleSided":true,
			"extensions":{
				"KHR_materials_specular":{
					"specularColorFactor":[
						1.2050808055629234,
						1.2050808055629234,
						1.2050808055629234
					]
				},
				"KHR_materials_ior":{
					"ior":1.4500000476837158
				}
			},
			"name":"King_kube_body.021",
			"pbrMetallicRoughness":{
				"baseColorTexture":{
					"index":7
				},
				"metallicFactor":0.8636363744735718,
				"roughnessFactor":0.0727272778749466
			}
		},
		{
			"doubleSided":true,
			"extensions":{
				"KHR_materials_specular":{
					"specularColorFactor":[
						1.2050808055629234,
						1.2050808055629234,
						1.2050808055629234
					]
				},
				"KHR_materials_ior":{
					"ior":1.4500000476837158
				}
			},
			"name":"King_kube_body.022",
			"pbrMetallicRoughness":{
				"baseColorTexture":{
					"index":8
				},
				"metallicFactor":0.8636363744735718,
				"roughnessFactor":0.0727272778749466
			}
		}
	],
	"meshes":[
		{
			"name":"Cubo.038",
			"primitives":[
				{
					"attributes":{
						"POSITION":0,
						"TEXCOORD_0":1,
						"NORMAL":2
					},
					"indices":3,
					"material":0
				}
			]
		},
		{
			"name":"Cubo.039",
			"primitives":[
				{
					"attributes":{
						"POSITION":4,
						"TEXCOORD_0":5,
						"NORMAL":6
					},
					"indices":3,
					"material":1
				}
			]
		},
		{
			"name":"Cubo.037",
			"primitives":[
				{
					"attributes":{
						"POSITION":7,
						"TEXCOORD_0":8,
						"NORMAL":9
					},
					"indices":3,
					"material":2
				}
			]
		},
		{
			"name":"Cubo.007",
			"primitives":[
				{
					"attributes":{
						"POSITION":10,
						"TEXCOORD_0":11,
						"NORMAL":12
					},
					"indices":3,
					"material":3
				}
			]
		},
		{
			"name":"Cubo.008",
			"primitives":[
				{
					"attributes":{
						"POSITION":13,
						"TEXCOORD_0":14,
						"NORMAL":15
					},
					"indices":3,
					"material":4
				}
			]
		},
		{
			"name":"Cubo.010",
			"primitives":[
				{
					"attributes":{
						"POSITION":16,
						"TEXCOORD_0":17,
						"NORMAL":18
					},
					"indices":3,
					"material":5
				}
			]
		},
		{
			"name":"Cubo.009",
			"primitives":[
				{
					"attributes":{
						"POSITION":19,
						"TEXCOORD_0":20,
						"NORMAL":21
					},
					"indices":3,
					"material":6
				}
			]
		},
		{
			"name":"Cubo.011",
			"primitives":[
				{
					"attributes":{
						"POSITION":22,
						"TEXCOORD_0":23,
						"NORMAL":24
					},
					"indices":3,
					"material":7
				}
			]
		},
		{
			"name":"Cubo.012",
			"primitives":[
				{
					"attributes":{
						"POSITION":25,
						"TEXCOORD_0":26,
						"NORMAL":27
					},
					"indices":3,
					"material":8
				}
			]
		}
	],
	"textures":[
		{
			"sampler":0,
			"source":0
		},
		{
			"sampler":0,
			"source":0
		},
		{
			"sampler":0,
			"source":1
		},
		{
			"sampler":0,
			"source":0
		},
		{
			"sampler":0,
			"source":0
		},
		{
			"sampler":0,
			"source":0
		},
		{
			"sampler":0,
			"source":0
		},
		{
			"sampler":0,
			"source":0
		},
		{
			"sampler":0,
			"source":0
		}
	],
	"images":[
		{
			"mimeType":"image/png",
			"name":"King_Kube_body.png",
			"uri":"King_Kube_body_png.png"
		},
		{
			"mimeType":"image/png",
			"name":"King_Kube_body",
			"uri":"King_Kube_body.png"
		}
	],
	"accessors":[
		{
			"bufferView":0,
			"componentType":5126,
			"count":24,
			"max":[
				1,
				1,
				1
			],
			"min":[
				-1,
				-1,
				-1
			],
			"type":"VEC3"
		},
		{
			"bufferView":1,
			"componentType":5126,
			"count":24,
			"type":"VEC2"
		},
		{
			"bufferView":2,
			"componentType":5126,
			"count":24,
			"type":"VEC3"
		},
		{
			"bufferView":3,
			"componentType":5123,
			"count":36,
			"type":"SCALAR"
		},
		{
			"bufferView":4,
			"componentType":5126,
			"count":24,
			"max":[
				1,
				1,
				1
			],
			"min":[
				-1,
				-1,
				-1
			],
			"type":"VEC3"
		},
		{
			"bufferView":5,
			"componentType":5126,
			"count":24,
			"type":"VEC2"
		},
		{
			"bufferView":6,
			"componentType":5126,
			"count":24,
			"type":"VEC3"
		},
		{
			"bufferView":7,
			"componentType":5126,
			"count":24,
			"max":[
				1,
				1,
				1
			],
			"min":[
				-1,
				-1,
				-1
			],
			"type":"VEC3"
		},
		{
			"bufferView":8,
			"componentType":5126,
			"count":24,
			"type":"VEC2"
		},
		{
			"bufferView":9,
			"componentType":5126,
			"count":24,
			"type":"VEC3"
		},
		{
			"bufferView":10,
			"componentType":5126,
			"count":24,
			"max":[
				1,
				1,
				1
			],
			"min":[
				-1,
				-1,
				-1
			],
			"type":"VEC3"
		},
		{
			"bufferView":11,
			"componentType":5126,
			"count":24,
			"type":"VEC2"
		},
		{
			"bufferView":12,
			"componentType":5126,
			"count":24,
			"type":"VEC3"
		},
		{
			"bufferView":13,
			"componentType":5126,
			"count":24,
			"max":[
				1,
				1,
				1
			],
			"min":[
				-1,
				-1,
				-1
			],
			"type":"VEC3"
		},
		{
			"bufferView":14,
			"componentType":5126,
			"count":24,
			"type":"VEC2"
		},
		{
			"bufferView":15,
			"componentType":5126,
			"count":24,
			"type":"VEC3"
		},
		{
			"bufferView":16,
			"componentType":5126,
			"count":24,
			"max":[
				1,
				1,
				1
			],
			"min":[
				-1,
				-1,
				-1
			],
			"type":"VEC3"
		},
		{
			"bufferView":17,
			"componentType":5126,
			"count":24,
			"type":"VEC2"
		},
		{
			"bufferView":18,
			"componentType":5126,
			"count":24,
			"type":"VEC3"
		},
		{
			"bufferView":19,
			"componentType":5126,
			"count":24,
			"max":[
				1,
				1,
				1
			],
			"min":[
				-1,
				-1,
				-1
			],
			"type":"VEC3"
		},
		{
			"bufferView":20,
			"componentType":5126,
			"count":24,
			"type":"VEC2"
		},
		{
			"bufferView":21,
			"componentType":5126,
			"count":24,
			"type":"VEC3"
		},
		{
			"bufferView":22,
			"componentType":5126,
			"count":24,
			"max":[
				1,
				1,
				1
			],
			"min":[
				-1,
				-1,
				-1
			],
			"type":"VEC3"
		},
		{
			"bufferView":23,
			"componentType":5126,
			"count":24,
			"type":"VEC2"
		},
		{
			"bufferView":24,
			"componentType":5126,
			"count":24,
			"type":"VEC3"
		},
		{
			"bufferView":25,
			"componentType":5126,
			"count":24,
			"max":[
				1,
				1,
				1
			],
			"min":[
				-1,
				-1,
				-1
			],
			"type":"VEC3"
		},
		{
			"bufferView":26,
			"componentType":5126,
			"count":24,
			"type":"VEC2"
		},
		{
			"bufferView":27,
			"componentType":5126,
			"count":24,
			"type":"VEC3"
		}
	],
	"bufferViews":[
		{
			"buffer":0,
			"byteLength":288,
			"byteOffset":0,
			"target":34962
		},
		{
			"buffer":0,
			"byteLength":192,
			"byteOffset":288,
			"target":34962
		},
		{
			"buffer":0,
			"byteLength":288,
			"byteOffset":480,
			"target":34962
		},
		{
			"buffer":0,
			"byteLength":72,
			"byteOffset":768,
			"target":34963
		},
		{
			"buffer":0,
			"byteLength":288,
			"byteOffset":840,
			"target":34962
		},
		{
			"buffer":0,
			"byteLength":192,
			"byteOffset":1128,
			"target":34962
		},
		{
			"buffer":0,
			"byteLength":288,
			"byteOffset":1320,
			"target":34962
		},
		{
			"buffer":0,
			"byteLength":288,
			"byteOffset":1608,
			"target":34962
		},
		{
			"buffer":0,
			"byteLength":192,
			"byteOffset":1896,
			"target":34962
		},
		{
			"buffer":0,
			"byteLength":288,
			"byteOffset":2088,
			"target":34962
		},
		{
			"buffer":0,
			"byteLength":288,
			"byteOffset":2376,
			"target":34962
		},
		{
			"buffer":0,
			"byteLength":192,
			"byteOffset":2664,
			"target":34962
		},
		{
			"buffer":0,
			"byteLength":288,
			"byteOffset":2856,
			"target":34962
		},
		{
			"buffer":0,
			"byteLength":288,
			"byteOffset":3144,
			"target":34962
		},
		{
			"buffer":0,
			"byteLength":192,
			"byteOffset":3432,
			"target":34962
		},
		{
			"buffer":0,
			"byteLength":288,
			"byteOffset":3624,
			"target":34962
		},
		{
			"buffer":0,
			"byteLength":288,
			"byteOffset":3912,
			"target":34962
		},
		{
			"buffer":0,
			"byteLength":192,
			"byteOffset":4200,
			"target":34962
		},
		{
			"buffer":0,
			"byteLength":288,
			"byteOffset":4392,
			"target":34962
		},
		{
			"buffer":0,
			"byteLength":288,
			"byteOffset":4680,
			"target":34962
		},
		{
			"buffer":0,
			"byteLength":192,
			"byteOffset":4968,
			"target":34962
		},
		{
			"buffer":0,
			"byteLength":288,
			"byteOffset":5160,
			"target":34962
		},
		{
			"buffer":0,
			"byteLength":288,
			"byteOffset":5448,
			"target":34962
		},
		{
			"buffer":0,
			"byteLength":192,
			"byteOffset":5736,
			"target":34962
		},
		{
			"buffer":0,
			"byteLength":288,
			"byteOffset":5928,
			"target":34962
		},
		{
			"buffer":0,
			"byteLength":288,
			"byteOffset":6216,
			"target":34962
		},
		{
			"buffer":0,
			"byteLength":192,
			"byteOffset":6504,
			"target":34962
		},
		{
			"buffer":0,
			"byteLength":288,
			"byteOffset":6696,
			"target":34962
		}
	],
	"samplers":[
		{
			"magFilter":9729,
			"minFilter":9987
		}
	],
	"buffers":[
		{
			"byteLength":6984,
			"uri":"king_hand.bin"
		}
	]
}
